<svg width="168" height="31" viewBox="0 0 168 31" fill="none" xmlns="http://www.w3.org/2000/svg">
<path d="M35.5669 18C35.4459 18 35.3469 17.9615 35.27 17.8846C35.193 17.8076 35.1545 17.7086 35.1545 17.5877V6.86708C35.1545 6.74613 35.193 6.64717 35.27 6.5702C35.3469 6.49323 35.4459 6.45475 35.5669 6.45475H40.5973C41.5429 6.45475 42.3181 6.58669 42.9228 6.85058C43.5276 7.11448 43.9729 7.49382 44.2588 7.98862C44.5557 8.47242 44.7041 9.04968 44.7041 9.72041C44.7041 10.1162 44.6271 10.4681 44.4732 10.776C44.3303 11.0729 44.1488 11.3203 43.9289 11.5182C43.72 11.7161 43.5221 11.859 43.3352 11.947C43.753 12.1449 44.1214 12.4693 44.4402 12.9201C44.7701 13.3709 44.935 13.8987 44.935 14.5034C44.935 15.2292 44.7701 15.8559 44.4402 16.3837C44.1214 16.9005 43.6485 17.3018 43.0218 17.5877C42.4061 17.8626 41.6474 18 40.7457 18H35.5669ZM38.1068 15.8559H40.4159C40.8887 15.8559 41.246 15.7185 41.4879 15.4436C41.7298 15.1687 41.8508 14.8553 41.8508 14.5034C41.8508 14.1186 41.7243 13.7942 41.4714 13.5303C41.2295 13.2665 40.8777 13.1345 40.4159 13.1345H38.1068V15.8559ZM38.1068 11.0399H40.2674C40.7182 11.0399 41.0536 10.9244 41.2735 10.6935C41.5044 10.4626 41.6199 10.1657 41.6199 9.80287C41.6199 9.45102 41.5044 9.16514 41.2735 8.94523C41.0536 8.71432 40.7182 8.59887 40.2674 8.59887H38.1068V11.0399ZM47.1798 18C47.0588 18 46.9599 17.9615 46.8829 17.8846C46.8059 17.8076 46.7674 17.7086 46.7674 17.5877V6.86708C46.7674 6.74613 46.8059 6.64717 46.8829 6.5702C46.9599 6.49323 47.0588 6.45475 47.1798 6.45475H54.8821C55.0031 6.45475 55.102 6.49323 55.179 6.5702C55.256 6.64717 55.2944 6.74613 55.2944 6.86708V8.41744C55.2944 8.53839 55.256 8.63735 55.179 8.71432C55.102 8.79129 55.0031 8.82977 54.8821 8.82977H49.6208V11.0564H54.5193C54.6402 11.0564 54.7392 11.1003 54.8161 11.1883C54.8931 11.2653 54.9316 11.3642 54.9316 11.4852V12.9201C54.9316 13.0301 54.8931 13.129 54.8161 13.217C54.7392 13.2939 54.6402 13.3324 54.5193 13.3324H49.6208V15.625H55.0141C55.135 15.625 55.234 15.6635 55.3109 15.7404C55.3879 15.8174 55.4264 15.9164 55.4264 16.0373V17.5877C55.4264 17.7086 55.3879 17.8076 55.3109 17.8846C55.234 17.9615 55.135 18 55.0141 18H47.1798ZM57.7135 18C57.5926 18 57.4936 17.9615 57.4167 17.8846C57.3397 17.8076 57.3012 17.7086 57.3012 17.5877V6.86708C57.3012 6.74613 57.3397 6.64717 57.4167 6.5702C57.4936 6.49323 57.5926 6.45475 57.7135 6.45475H59.8907C60.0006 6.45475 60.0941 6.49323 60.171 6.5702C60.259 6.64717 60.303 6.74613 60.303 6.86708V15.5095H65.2839C65.4049 15.5095 65.5038 15.5535 65.5808 15.6415C65.6688 15.7185 65.7128 15.8174 65.7128 15.9384V17.5877C65.7128 17.7086 65.6688 17.8076 65.5808 17.8846C65.5038 17.9615 65.4049 18 65.2839 18H57.7135ZM67.5547 18C67.4338 18 67.3348 17.9615 67.2578 17.8846C67.1809 17.8076 67.1424 17.7086 67.1424 17.5877V6.86708C67.1424 6.74613 67.1809 6.64717 67.2578 6.5702C67.3348 6.49323 67.4338 6.45475 67.5547 6.45475H69.7318C69.8418 6.45475 69.9352 6.49323 70.0122 6.5702C70.1002 6.64717 70.1442 6.74613 70.1442 6.86708V15.5095H75.1251C75.2461 15.5095 75.345 15.5535 75.422 15.6415C75.51 15.7185 75.5539 15.8174 75.5539 15.9384V17.5877C75.5539 17.7086 75.51 17.8076 75.422 17.8846C75.345 17.9615 75.2461 18 75.1251 18H67.5547ZM81.2883 18.1649C80.1888 18.1649 79.2761 18.011 78.5504 17.7031C77.8247 17.3843 77.275 16.9719 76.9011 16.4661C76.5273 15.9604 76.3293 15.4216 76.3074 14.8498C76.3074 14.7618 76.3403 14.6849 76.4063 14.6189C76.4833 14.5419 76.5712 14.5034 76.6702 14.5034H78.7484C78.9023 14.5034 79.0177 14.5309 79.0947 14.5859C79.1827 14.6409 79.2596 14.7124 79.3256 14.8003C79.4136 14.9653 79.5345 15.1247 79.6885 15.2786C79.8534 15.4326 80.0623 15.559 80.3152 15.658C80.5791 15.7459 80.9035 15.7899 81.2883 15.7899C81.926 15.7899 82.4044 15.691 82.7232 15.493C83.0531 15.2951 83.218 15.0257 83.218 14.6849C83.218 14.443 83.1301 14.2451 82.9541 14.0911C82.7782 13.9262 82.4923 13.7832 82.0965 13.6623C81.7116 13.5303 81.1948 13.3984 80.5461 13.2665C79.7105 13.0905 78.9958 12.8651 78.402 12.5902C77.8192 12.3043 77.3739 11.936 77.066 11.4852C76.7582 11.0234 76.6042 10.4516 76.6042 9.76989C76.6042 9.09916 76.7912 8.49991 77.165 7.97212C77.5498 7.44434 78.0831 7.03201 78.7648 6.73513C79.4466 6.43825 80.2547 6.28981 81.1894 6.28981C81.948 6.28981 82.6133 6.38877 83.185 6.58669C83.7678 6.78461 84.2571 7.0485 84.6529 7.37837C85.0488 7.70823 85.3456 8.06009 85.5436 8.43394C85.7525 8.79679 85.8624 9.15414 85.8734 9.506C85.8734 9.59396 85.8404 9.67643 85.7745 9.7534C85.7085 9.81937 85.626 9.85235 85.5271 9.85235H83.35C83.229 9.85235 83.1246 9.83036 83.0366 9.78638C82.9486 9.7424 82.8717 9.67093 82.8057 9.57197C82.7397 9.33007 82.5638 9.12115 82.2779 8.94523C82.003 8.7583 81.6402 8.66484 81.1894 8.66484C80.7055 8.66484 80.3262 8.7528 80.0513 8.92873C79.7874 9.09367 79.6555 9.35206 79.6555 9.70392C79.6555 9.92383 79.727 10.1162 79.8699 10.2812C80.0238 10.4461 80.2712 10.5891 80.6121 10.71C80.9639 10.831 81.4422 10.9574 82.047 11.0893C83.0476 11.2763 83.8558 11.5127 84.4715 11.7986C85.0873 12.0734 85.5381 12.4363 85.824 12.8871C86.1098 13.3269 86.2528 13.8822 86.2528 14.5529C86.2528 15.3006 86.0384 15.9494 85.6095 16.4991C85.1917 17.0379 84.6089 17.4502 83.8613 17.7361C83.1136 18.022 82.2559 18.1649 81.2883 18.1649ZM96.1322 18.1649C95.1206 18.1649 94.241 18 93.4933 17.6702C92.7456 17.3403 92.1629 16.8455 91.745 16.1858C91.3272 15.515 91.0963 14.6794 91.0523 13.6788C91.0413 13.206 91.0358 12.7332 91.0358 12.2604C91.0358 11.7876 91.0413 11.3093 91.0523 10.8255C91.0963 9.83586 91.3272 9.0057 91.745 8.33498C92.1739 7.65326 92.7621 7.14197 93.5098 6.8011C94.2575 6.46024 95.1316 6.28981 96.1322 6.28981C97.1218 6.28981 97.9905 6.46024 98.7382 6.8011C99.4969 7.14197 100.091 7.65326 100.519 8.33498C100.948 9.0057 101.179 9.83586 101.212 10.8255C101.234 11.3093 101.245 11.7876 101.245 12.2604C101.245 12.7332 101.234 13.206 101.212 13.6788C101.168 14.6794 100.937 15.515 100.519 16.1858C100.102 16.8455 99.5188 17.3403 98.7711 17.6702C98.0235 18 97.1438 18.1649 96.1322 18.1649ZM96.1322 15.7899C96.715 15.7899 97.1878 15.614 97.5506 15.2621C97.9245 14.9103 98.1224 14.3495 98.1444 13.5798C98.1664 13.096 98.1774 12.6397 98.1774 12.2109C98.1774 11.7821 98.1664 11.3367 98.1444 10.8749C98.1224 10.3581 98.0235 9.94032 97.8475 9.62145C97.6826 9.29158 97.4517 9.04968 97.1548 8.89575C96.8579 8.74181 96.5171 8.66484 96.1322 8.66484C95.7584 8.66484 95.423 8.74181 95.1261 8.89575C94.8293 9.04968 94.5929 9.29158 94.4169 9.62145C94.241 9.94032 94.142 10.3581 94.1201 10.8749C94.1091 11.3367 94.1036 11.7821 94.1036 12.2109C94.1036 12.6397 94.1091 13.096 94.1201 13.5798C94.153 14.3495 94.351 14.9103 94.7138 15.2621C95.0767 15.614 95.5495 15.7899 96.1322 15.7899ZM103.569 18C103.448 18 103.349 17.9615 103.272 17.8846C103.195 17.8076 103.157 17.7086 103.157 17.5877V6.86708C103.157 6.74613 103.195 6.64717 103.272 6.5702C103.349 6.49323 103.448 6.45475 103.569 6.45475H111.14C111.261 6.45475 111.36 6.49323 111.437 6.5702C111.525 6.64717 111.568 6.74613 111.568 6.86708V8.5329C111.568 8.65385 111.525 8.7528 111.437 8.82977C111.36 8.90674 111.261 8.94523 111.14 8.94523H106.06V11.3697H110.81C110.931 11.3697 111.03 11.4137 111.107 11.5017C111.195 11.5786 111.239 11.6776 111.239 11.7986V13.4479C111.239 13.5578 111.195 13.6568 111.107 13.7448C111.03 13.8217 110.931 13.8602 110.81 13.8602H106.06V17.5877C106.06 17.7086 106.021 17.8076 105.944 17.8846C105.867 17.9615 105.768 18 105.647 18H103.569ZM120.911 18.1649C119.811 18.1649 118.899 18.011 118.173 17.7031C117.447 17.3843 116.897 16.9719 116.524 16.4661C116.15 15.9604 115.952 15.4216 115.93 14.8498C115.93 14.7618 115.963 14.6849 116.029 14.6189C116.106 14.5419 116.194 14.5034 116.293 14.5034H118.371C118.525 14.5034 118.64 14.5309 118.717 14.5859C118.805 14.6409 118.882 14.7124 118.948 14.8003C119.036 14.9653 119.157 15.1247 119.311 15.2786C119.476 15.4326 119.685 15.559 119.938 15.658C120.202 15.7459 120.526 15.7899 120.911 15.7899C121.548 15.7899 122.027 15.691 122.346 15.493C122.676 15.2951 122.84 15.0257 122.84 14.6849C122.84 14.443 122.752 14.2451 122.577 14.0911C122.401 13.9262 122.115 13.7832 121.719 13.6623C121.334 13.5303 120.817 13.3984 120.169 13.2665C119.333 13.0905 118.618 12.8651 118.024 12.5902C117.442 12.3043 116.996 11.936 116.688 11.4852C116.381 11.0234 116.227 10.4516 116.227 9.76989C116.227 9.09916 116.414 8.49991 116.787 7.97212C117.172 7.44434 117.706 7.03201 118.387 6.73513C119.069 6.43825 119.877 6.28981 120.812 6.28981C121.57 6.28981 122.236 6.38877 122.807 6.58669C123.39 6.78461 123.88 7.0485 124.275 7.37837C124.671 7.70823 124.968 8.06009 125.166 8.43394C125.375 8.79679 125.485 9.15414 125.496 9.506C125.496 9.59396 125.463 9.67643 125.397 9.7534C125.331 9.81937 125.248 9.85235 125.15 9.85235H122.972C122.851 9.85235 122.747 9.83036 122.659 9.78638C122.571 9.7424 122.494 9.67093 122.428 9.57197C122.362 9.33007 122.186 9.12115 121.9 8.94523C121.625 8.7583 121.263 8.66484 120.812 8.66484C120.328 8.66484 119.949 8.7528 119.674 8.92873C119.41 9.09367 119.278 9.35206 119.278 9.70392C119.278 9.92383 119.349 10.1162 119.492 10.2812C119.646 10.4461 119.894 10.5891 120.235 10.71C120.586 10.831 121.065 10.9574 121.669 11.0893C122.67 11.2763 123.478 11.5127 124.094 11.7986C124.71 12.0734 125.16 12.4363 125.446 12.8871C125.732 13.3269 125.875 13.8822 125.875 14.5529C125.875 15.3006 125.661 15.9494 125.232 16.4991C124.814 17.0379 124.231 17.4502 123.484 17.7361C122.736 18.022 121.878 18.1649 120.911 18.1649ZM130.366 18C130.245 18 130.146 17.9615 130.069 17.8846C129.992 17.8076 129.954 17.7086 129.954 17.5877V9.04419H127.018C126.897 9.04419 126.798 9.0057 126.721 8.92873C126.644 8.84077 126.605 8.74181 126.605 8.63185V6.86708C126.605 6.74613 126.644 6.64717 126.721 6.5702C126.798 6.49323 126.897 6.45475 127.018 6.45475H135.891C136.012 6.45475 136.111 6.49323 136.188 6.5702C136.265 6.64717 136.303 6.74613 136.303 6.86708V8.63185C136.303 8.74181 136.265 8.84077 136.188 8.92873C136.111 9.0057 136.012 9.04419 135.891 9.04419H132.955V17.5877C132.955 17.7086 132.917 17.8076 132.84 17.8846C132.763 17.9615 132.664 18 132.543 18H130.366ZM138.215 18C138.094 18 137.995 17.9615 137.918 17.8846C137.841 17.8076 137.802 17.7086 137.802 17.5877V6.86708C137.802 6.74613 137.841 6.64717 137.918 6.5702C137.995 6.49323 138.094 6.45475 138.215 6.45475H145.917C146.038 6.45475 146.137 6.49323 146.214 6.5702C146.291 6.64717 146.329 6.74613 146.329 6.86708V8.41744C146.329 8.53839 146.291 8.63735 146.214 8.71432C146.137 8.79129 146.038 8.82977 145.917 8.82977H140.656V11.0564H145.554C145.675 11.0564 145.774 11.1003 145.851 11.1883C145.928 11.2653 145.967 11.3642 145.967 11.4852V12.9201C145.967 13.0301 145.928 13.129 145.851 13.217C145.774 13.2939 145.675 13.3324 145.554 13.3324H140.656V15.625H146.049C146.17 15.625 146.269 15.6635 146.346 15.7404C146.423 15.8174 146.461 15.9164 146.461 16.0373V17.5877C146.461 17.7086 146.423 17.8076 146.346 17.8846C146.269 17.9615 146.17 18 146.049 18H138.215ZM148.748 18C148.628 18 148.529 17.9615 148.452 17.8846C148.375 17.8076 148.336 17.7086 148.336 17.5877V6.86708C148.336 6.74613 148.375 6.64717 148.452 6.5702C148.529 6.49323 148.628 6.45475 148.748 6.45475H156.451C156.572 6.45475 156.671 6.49323 156.748 6.5702C156.825 6.64717 156.863 6.74613 156.863 6.86708V8.41744C156.863 8.53839 156.825 8.63735 156.748 8.71432C156.671 8.79129 156.572 8.82977 156.451 8.82977H151.189V11.0564H156.088C156.209 11.0564 156.308 11.1003 156.385 11.1883C156.462 11.2653 156.5 11.3642 156.5 11.4852V12.9201C156.5 13.0301 156.462 13.129 156.385 13.217C156.308 13.2939 156.209 13.3324 156.088 13.3324H151.189V15.625H156.583C156.704 15.625 156.803 15.6635 156.88 15.7404C156.957 15.8174 156.995 15.9164 156.995 16.0373V17.5877C156.995 17.7086 156.957 17.8076 156.88 17.8846C156.803 17.9615 156.704 18 156.583 18H148.748ZM159.282 18C159.161 18 159.062 17.9615 158.985 17.8846C158.908 17.8076 158.87 17.7086 158.87 17.5877V6.86708C158.87 6.74613 158.908 6.64717 158.985 6.5702C159.062 6.49323 159.161 6.45475 159.282 6.45475H161.459C161.569 6.45475 161.663 6.49323 161.74 6.5702C161.828 6.64717 161.872 6.74613 161.872 6.86708V15.5095H166.853C166.974 15.5095 167.073 15.5535 167.15 15.6415C167.238 15.7185 167.281 15.8174 167.281 15.9384V17.5877C167.281 17.7086 167.238 17.8076 167.15 17.8846C167.073 17.9615 166.974 18 166.853 18H159.282Z" fill="white"/>
<path d="M15.5 30.022C23.6626 30.022 30.2798 23.4049 30.2798 15.2423C30.2798 7.07966 23.6626 0.46254 15.5 0.46254C7.33738 0.46254 0.720261 7.07966 0.720261 15.2423C0.720261 23.4049 7.33738 30.022 15.5 30.022Z" fill="white"/>
<path d="M15.9153 10.5607H15.15C14.6379 10.5607 14.5839 10.8375 14.3847 11.1346L14.9632 10.9534L15.3424 10.9433C15.4122 10.9433 15.4752 10.9444 15.5338 10.9478C15.5923 10.9444 15.6553 10.9433 15.7251 10.9433L16.1043 10.9534L16.6828 11.1346C16.4836 10.8364 16.4284 10.5607 15.9175 10.5607H15.9153Z" fill="#010001"/>
<path d="M15.5326 11.3237C15.0532 11.3046 15.2986 11.2449 14.9587 11.7086H16.1077C15.7678 11.2449 16.0132 11.3034 15.5338 11.3237H15.5326Z" fill="#010001"/>
<path d="M15.527 30.6444C20.1254 30.6444 24.2443 28.5951 27.0217 25.3607C26.1192 25.1975 24.6359 24.4289 25.4811 24.1486C25.3517 22.5922 20.6971 22.3131 18.8582 21.6863C17.3895 21.1855 13.8299 19.3894 12.2859 19.3894H11.8537C11.0682 19.3894 11.0952 19.6459 10.3401 19.8215C10.7677 19.2386 11.7491 18.74 12.7192 18.74C14.4039 18.74 15.8826 19.5458 17.3456 19.9543C19.3252 20.5057 20.5406 19.4062 22.4538 20.6869L22.4932 20.4709L26.8237 21.271C27.015 21.3059 27.0476 21.4421 26.782 21.0662C26.0719 20.0612 24.3917 19.6392 22.8859 19.6054C22.9906 18.3427 23.6996 17.6889 25.0489 17.6585C23.9494 16.0177 21.944 15.2794 19.2082 15.2794C18.3956 15.2794 17.573 15.3548 16.8291 15.7116L16.7244 15.4505L19.1474 14.477C18.1244 13.355 16.6783 14.3634 15.5315 14.6301V13.6442L16.0064 13.3438L15.7915 12.6426L14.7032 12.8238L13.8209 12.4772L13.4811 9.88881L12.8587 8.75667L12.8655 8.14108L13.5722 8.35716H14.8293L14.6672 9.87081H16.6141V9.43866H15.3166V7.70781H15.9659V8.35716H17.4796C18.0636 8.35716 18.076 8.25362 18.5611 8.14108V9.00651L19.009 8.35716C19.036 9.86856 18.5611 9.24847 18.5611 10.088V13.3325L19.6324 13.9942C23.0221 14.4714 28.3013 14.6897 28.2946 20.903V22.4167C28.2946 23.317 27.4787 24.008 27.2592 25.0771C27.8962 24.2972 28.4566 23.4531 28.9304 22.5551C28.9844 21.6075 28.9203 20.7511 28.8449 20.1411C27.9671 13.7061 24.861 15.0127 20.1377 12.8835C19.5728 12.6291 19.413 12.3478 19.413 12.0316L19.4164 10.7475C19.4197 9.73126 19.8238 10.0824 19.853 8.78593C19.8789 7.8271 20.7499 7.22277 19.853 6.62406C19.8147 5.1588 19.3612 4.41267 18.4305 3.72168C16.5275 2.30931 14.6886 2.2868 12.8036 3.68004C11.8661 4.37328 11.4193 5.08903 11.4193 6.62181C10.5224 7.22164 11.3935 7.82597 11.4193 8.78481C11.4486 10.0813 11.8515 9.72901 11.8515 10.7317V12.6787C11.8515 12.6787 8.65875 14.6875 7.94638 14.6875C4.43179 14.6875 1.8614 17.9691 2.05722 19.9768C2.06397 20.0511 2.0741 20.1231 2.08873 20.1929H2.05947C2.06172 20.5733 2.07297 20.939 2.08873 21.2958V22.4909C4.61523 27.3346 9.68286 30.641 15.5236 30.641L15.527 30.6444ZM9.16968 22.8713C10.0025 22.8713 12.2803 24.0383 12.2803 24.0383C14.1495 24.5887 15.5079 25.5486 16.353 26.764L7.36343 23.6771C5.91955 21.1213 3.11396 22.9276 3.11396 22.9276C4.5477 21.0392 7.55475 21.4905 9.16968 22.8724V22.8713Z" fill="#010001"/>
<path d="M15.5 1.07137C23.4689 1.07137 29.9286 7.53111 29.9286 15.5C29.9286 23.4689 23.4689 29.9286 15.5 29.9286C7.53111 29.9286 1.07137 23.4689 1.07137 15.5C1.07137 7.53111 7.53111 1.07137 15.5 1.07137ZM15.5 0C6.95379 0 0 6.95266 0 15.5C0 24.0473 6.95266 31 15.5 31C24.0473 31 31 24.0473 31 15.5C31 6.95266 24.0473 0 15.5 0Z" fill="#010001"/>
<path d="M126 24.6099L125.536 24.3901C125.472 24.3681 125.43 24.2807 125.472 24.2145L125.873 22.9415L124.712 23.2046C124.648 23.2266 124.585 23.1825 124.564 23.1172L124.332 22.5689L123.425 23.578C123.361 23.6442 123.277 23.6442 123.235 23.578C123.192 23.5339 123.192 23.4906 123.192 23.4464L123.635 21.0981L122.939 21.5148C122.875 21.559 122.791 21.5369 122.749 21.4707L122.031 20L121.314 21.4707C121.271 21.5369 121.187 21.5802 121.124 21.5369L120.428 21.1202L120.871 23.4685C120.892 23.5559 120.828 23.6221 120.765 23.6442C120.723 23.6442 120.66 23.6442 120.639 23.6L119.731 22.591L119.436 23.0959C119.415 23.1622 119.352 23.2054 119.288 23.1834L118.127 22.9203L118.528 24.1933C118.549 24.2595 118.528 24.3469 118.464 24.3689L118 24.5887L120.026 26.3005C120.068 26.3446 120.09 26.4099 120.068 26.4541L119.815 27.178L121.673 26.8487C121.778 26.8266 121.884 26.9149 121.905 27.0244V27.0685L121.8 29H122.179L122.095 27.0685C122.095 26.959 122.179 26.8487 122.285 26.8487H122.328L124.185 27.178L123.932 26.4541C123.911 26.3879 123.932 26.3225 123.975 26.3005L126 24.6099Z" fill="white"/>
<path d="M111.971 27.3718C111.917 27.3718 111.876 27.3573 111.847 27.3283C111.818 27.2944 111.804 27.2533 111.804 27.2049V22.4662C111.804 22.413 111.818 22.3719 111.847 22.3429C111.876 22.309 111.917 22.2921 111.971 22.2921H112.304C112.362 22.2921 112.406 22.3066 112.435 22.3356C112.464 22.3598 112.481 22.3792 112.486 22.3937L114.895 26.0946V22.4662C114.895 22.413 114.91 22.3719 114.939 22.3429C114.968 22.309 115.009 22.2921 115.062 22.2921H115.41C115.464 22.2921 115.505 22.309 115.534 22.3429C115.568 22.3719 115.584 22.413 115.584 22.4662V27.1977C115.584 27.246 115.568 27.2872 115.534 27.321C115.505 27.3549 115.466 27.3718 115.418 27.3718H115.069C115.016 27.3718 114.975 27.3573 114.946 27.3283C114.922 27.2993 114.905 27.2799 114.895 27.2702L112.493 23.6055V27.2049C112.493 27.2533 112.476 27.2944 112.442 27.3283C112.413 27.3573 112.372 27.3718 112.319 27.3718H111.971Z" fill="white"/>
<path d="M105.875 27.3718C105.837 27.3718 105.803 27.3573 105.774 27.3283C105.745 27.2993 105.73 27.2654 105.73 27.2267C105.73 27.2025 105.733 27.1759 105.738 27.1469L107.537 22.4517C107.557 22.4033 107.583 22.3646 107.617 22.3356C107.651 22.3066 107.702 22.2921 107.77 22.2921H108.263C108.326 22.2921 108.374 22.3066 108.408 22.3356C108.447 22.3646 108.476 22.4033 108.495 22.4517L110.288 27.1469C110.297 27.1759 110.302 27.2025 110.302 27.2267C110.302 27.2654 110.288 27.2993 110.259 27.3283C110.23 27.3573 110.196 27.3718 110.157 27.3718H109.787C109.729 27.3718 109.685 27.3573 109.656 27.3283C109.632 27.2993 109.615 27.2726 109.605 27.2485L109.206 26.218H106.826L106.427 27.2485C106.422 27.2726 106.405 27.2993 106.376 27.3283C106.347 27.3573 106.304 27.3718 106.246 27.3718H105.875ZM107.037 25.5939H108.996L108.016 23.0177L107.037 25.5939Z" fill="white"/>
<path d="M103.673 27.3718C103.62 27.3718 103.579 27.3573 103.55 27.3283C103.521 27.2944 103.507 27.2533 103.507 27.2049V22.459C103.507 22.4106 103.521 22.3719 103.55 22.3429C103.579 22.309 103.62 22.2921 103.673 22.2921H104.058C104.106 22.2921 104.145 22.309 104.174 22.3429C104.208 22.3719 104.225 22.4106 104.225 22.459V27.2049C104.225 27.2533 104.208 27.2944 104.174 27.3283C104.145 27.3573 104.106 27.3718 104.058 27.3718H103.673Z" fill="white"/>
<path d="M97.9446 27.3718C97.8914 27.3718 97.8502 27.3573 97.8212 27.3283C97.7922 27.2944 97.7777 27.2533 97.7777 27.2049V22.4662C97.7777 22.413 97.7922 22.3719 97.8212 22.3429C97.8502 22.309 97.8914 22.2921 97.9446 22.2921H99.5919C100.09 22.2921 100.492 22.3671 100.797 22.517C101.101 22.667 101.324 22.8895 101.464 23.1847C101.604 23.4749 101.677 23.8329 101.682 24.2587C101.687 24.4764 101.689 24.6675 101.689 24.8319C101.689 24.9964 101.687 25.1851 101.682 25.398C101.672 25.8431 101.597 26.2132 101.457 26.5083C101.321 26.7985 101.104 27.0162 100.804 27.1614C100.509 27.3017 100.117 27.3718 99.6282 27.3718H97.9446ZM98.4888 26.755H99.5919C99.9257 26.755 100.192 26.709 100.39 26.6171C100.588 26.5252 100.731 26.3776 100.818 26.1745C100.91 25.9713 100.959 25.7028 100.963 25.3689C100.973 25.2238 100.978 25.098 100.978 24.9916C100.978 24.8803 100.978 24.7715 100.978 24.665C100.978 24.5538 100.973 24.428 100.963 24.2877C100.954 23.8184 100.842 23.4725 100.63 23.25C100.417 23.0226 100.059 22.9089 99.5556 22.9089H98.4888V26.755Z" fill="white"/>
<path d="M91.8495 27.3718C91.8108 27.3718 91.7769 27.3573 91.7479 27.3283C91.7188 27.2993 91.7043 27.2654 91.7043 27.2267C91.7043 27.2025 91.7067 27.1759 91.7116 27.1469L93.5113 22.4517C93.5306 22.4033 93.5572 22.3646 93.5911 22.3356C93.6249 22.3066 93.6757 22.2921 93.7435 22.2921H94.2369C94.2998 22.2921 94.3482 22.3066 94.3821 22.3356C94.4208 22.3646 94.4498 22.4033 94.4692 22.4517L96.2616 27.1469C96.2713 27.1759 96.2761 27.2025 96.2761 27.2267C96.2761 27.2654 96.2616 27.2993 96.2326 27.3283C96.2035 27.3573 96.1697 27.3718 96.131 27.3718H95.7609C95.7028 27.3718 95.6593 27.3573 95.6302 27.3283C95.6061 27.2993 95.5891 27.2726 95.5794 27.2485L95.1803 26.218H92.8001L92.401 27.2485C92.3961 27.2726 92.3792 27.2993 92.3502 27.3283C92.3211 27.3573 92.2776 27.3718 92.2195 27.3718H91.8495ZM93.0105 25.5939H94.9699L93.9902 23.0177L93.0105 25.5939Z" fill="white"/>
<path d="M86.5931 27.3718C86.5399 27.3718 86.4987 27.3573 86.4697 27.3283C86.4407 27.2944 86.4262 27.2533 86.4262 27.2049V22.4662C86.4262 22.413 86.4407 22.3719 86.4697 22.3429C86.4987 22.309 86.5399 22.2921 86.5931 22.2921H86.9269C86.985 22.2921 87.0285 22.3066 87.0575 22.3356C87.0865 22.3598 87.1035 22.3792 87.1083 22.3937L89.5176 26.0946V22.4662C89.5176 22.413 89.5321 22.3719 89.5611 22.3429C89.5901 22.309 89.6313 22.2921 89.6845 22.2921H90.0328C90.086 22.2921 90.1271 22.309 90.1562 22.3429C90.19 22.3719 90.207 22.413 90.207 22.4662V27.1977C90.207 27.246 90.19 27.2872 90.1562 27.321C90.1271 27.3549 90.0884 27.3718 90.0401 27.3718H89.6917C89.6385 27.3718 89.5974 27.3573 89.5684 27.3283C89.5442 27.2993 89.5272 27.2799 89.5176 27.2702L87.1156 23.6055V27.2049C87.1156 27.2533 87.0986 27.2944 87.0648 27.3283C87.0358 27.3573 86.9946 27.3718 86.9414 27.3718H86.5931Z" fill="white"/>
<path d="M80.498 27.3718C80.4592 27.3718 80.4254 27.3573 80.3964 27.3283C80.3673 27.2993 80.3528 27.2654 80.3528 27.2267C80.3528 27.2025 80.3552 27.1759 80.3601 27.1469L82.1598 22.4517C82.1791 22.4033 82.2057 22.3646 82.2396 22.3356C82.2734 22.3066 82.3242 22.2921 82.392 22.2921H82.8854C82.9483 22.2921 82.9967 22.3066 83.0306 22.3356C83.0693 22.3646 83.0983 22.4033 83.1177 22.4517L84.9101 27.1469C84.9198 27.1759 84.9246 27.2025 84.9246 27.2267C84.9246 27.2654 84.9101 27.2993 84.8811 27.3283C84.852 27.3573 84.8182 27.3718 84.7795 27.3718H84.4094C84.3513 27.3718 84.3078 27.3573 84.2787 27.3283C84.2546 27.2993 84.2376 27.2726 84.2279 27.2485L83.8288 26.218H81.4486L81.0495 27.2485C81.0446 27.2726 81.0277 27.2993 80.9987 27.3283C80.9696 27.3573 80.9261 27.3718 80.868 27.3718H80.498ZM81.659 25.5939H83.6184L82.6387 23.0177L81.659 25.5939Z" fill="white"/>
<path d="M77.1585 27.4444C76.7134 27.4444 76.3433 27.3621 76.0482 27.1977C75.758 27.0332 75.5378 26.8034 75.3879 26.5083C75.2379 26.2132 75.1557 25.8697 75.1411 25.4778C75.1363 25.2794 75.1339 25.0666 75.1339 24.8392C75.1339 24.6118 75.1363 24.3941 75.1411 24.1861C75.1557 23.7942 75.2379 23.4507 75.3879 23.1556C75.5378 22.8605 75.758 22.6307 76.0482 22.4662C76.3433 22.3017 76.7134 22.2195 77.1585 22.2195C77.4923 22.2195 77.785 22.2655 78.0366 22.3574C78.2882 22.4493 78.4962 22.5727 78.6607 22.7275C78.83 22.8823 78.9582 23.0564 79.0453 23.25C79.1324 23.4386 79.1808 23.6346 79.1904 23.8378C79.1953 23.8813 79.1808 23.9176 79.1469 23.9466C79.1179 23.9756 79.0816 23.9902 79.038 23.9902H78.6389C78.5954 23.9902 78.5567 23.9781 78.5228 23.9539C78.4938 23.9297 78.472 23.8861 78.4575 23.8232C78.3752 23.4459 78.2204 23.1871 77.9931 23.0468C77.7705 22.9065 77.4899 22.8363 77.1513 22.8363C76.7642 22.8363 76.457 22.9476 76.2297 23.1701C76.0023 23.3878 75.8789 23.7386 75.8596 24.2224C75.845 24.6191 75.845 25.0255 75.8596 25.4415C75.8789 25.9253 76.0023 26.2785 76.2297 26.501C76.457 26.7187 76.7642 26.8276 77.1513 26.8276C77.4899 26.8276 77.7705 26.7574 77.9931 26.6171C78.2204 26.4768 78.3752 26.218 78.4575 25.8406C78.472 25.7777 78.4938 25.7342 78.5228 25.71C78.5567 25.6858 78.5954 25.6737 78.6389 25.6737H79.038C79.0816 25.6737 79.1179 25.6882 79.1469 25.7173C79.1808 25.7463 79.1953 25.7826 79.1904 25.8261C79.1808 26.0293 79.1324 26.2277 79.0453 26.4212C78.9582 26.6099 78.83 26.7816 78.6607 26.9364C78.4962 27.0912 78.2882 27.2146 78.0366 27.3065C77.785 27.3984 77.4923 27.4444 77.1585 27.4444Z" fill="white"/>
<path d="M69.1377 27.3718C69.0894 27.3718 69.0482 27.3573 69.0144 27.3283C68.9853 27.2944 68.9708 27.2533 68.9708 27.2049V25.4923L67.2219 22.5315C67.2171 22.517 67.2123 22.5025 67.2074 22.488C67.2026 22.4735 67.2002 22.4566 67.2002 22.4372C67.2002 22.3985 67.2147 22.3646 67.2437 22.3356C67.2727 22.3066 67.3066 22.2921 67.3453 22.2921H67.7227C67.7662 22.2921 67.8049 22.3042 67.8388 22.3284C67.8726 22.3477 67.8968 22.3767 67.9113 22.4154L69.3264 24.7666L70.7415 22.4154C70.7657 22.3767 70.7923 22.3477 70.8213 22.3284C70.8552 22.3042 70.8939 22.2921 70.9374 22.2921H71.3075C71.3511 22.2921 71.3873 22.3066 71.4164 22.3356C71.4454 22.3646 71.4599 22.3985 71.4599 22.4372C71.4599 22.4566 71.4575 22.4735 71.4526 22.488C71.4478 22.5025 71.4405 22.517 71.4309 22.5315L69.6892 25.4923V27.2049C69.6892 27.2533 69.6723 27.2944 69.6384 27.3283C69.6094 27.3573 69.5683 27.3718 69.5151 27.3718H69.1377Z" fill="white"/>
<path d="M63.7384 27.3718C63.6852 27.3718 63.6441 27.3573 63.6151 27.3283C63.586 27.2944 63.5715 27.2533 63.5715 27.2049V22.459C63.5715 22.4106 63.586 22.3719 63.6151 22.3429C63.6441 22.309 63.6852 22.2921 63.7384 22.2921H64.1231C64.1714 22.2921 64.2101 22.309 64.2392 22.3429C64.2682 22.3719 64.2827 22.4106 64.2827 22.459V26.7405H66.6992C66.7524 26.7405 66.7935 26.7574 66.8226 26.7913C66.8516 26.8203 66.8661 26.8614 66.8661 26.9146V27.2049C66.8661 27.2533 66.8516 27.2944 66.8226 27.3283C66.7935 27.3573 66.7524 27.3718 66.6992 27.3718H63.7384Z" fill="white"/>
<path d="M58.0096 27.3718C57.9563 27.3718 57.9152 27.3573 57.8862 27.3283C57.8572 27.2944 57.8427 27.2533 57.8427 27.2049V22.4662C57.8427 22.413 57.8572 22.3719 57.8862 22.3429C57.9152 22.309 57.9563 22.2921 58.0096 22.2921H59.6568C60.1551 22.2921 60.5567 22.3671 60.8615 22.517C61.1663 22.667 61.3888 22.8895 61.5291 23.1847C61.6694 23.4749 61.742 23.8329 61.7468 24.2587C61.7516 24.4764 61.7541 24.6675 61.7541 24.8319C61.7541 24.9964 61.7516 25.1851 61.7468 25.398C61.7371 25.8431 61.6621 26.2132 61.5218 26.5083C61.3864 26.7985 61.1687 27.0162 60.8687 27.1614C60.5736 27.3017 60.1818 27.3718 59.6931 27.3718H58.0096ZM58.5538 26.755H59.6568C59.9907 26.755 60.2567 26.709 60.4551 26.6171C60.6534 26.5252 60.7962 26.3776 60.8832 26.1745C60.9752 25.9713 61.0235 25.7028 61.0284 25.3689C61.0381 25.2238 61.0429 25.098 61.0429 24.9916C61.0429 24.8803 61.0429 24.7715 61.0429 24.665C61.0429 24.5538 61.0381 24.428 61.0284 24.2877C61.0187 23.8184 60.9074 23.4725 60.6946 23.25C60.4817 23.0226 60.1237 22.9089 59.6206 22.9089H58.5538V26.755Z" fill="white"/>
<path d="M53.9445 27.4444C53.5381 27.4444 53.1874 27.3718 52.8923 27.2267C52.602 27.0816 52.377 26.8614 52.2174 26.5663C52.0626 26.2664 51.9852 25.8818 51.9852 25.4125V22.4662C51.9852 22.413 51.9997 22.3719 52.0287 22.3429C52.0577 22.309 52.0989 22.2921 52.1521 22.2921H52.5222C52.5754 22.2921 52.6165 22.309 52.6455 22.3429C52.6794 22.3719 52.6963 22.413 52.6963 22.4662V25.427C52.6963 25.9011 52.8076 26.2519 53.0301 26.4792C53.2527 26.7066 53.5575 26.8203 53.9445 26.8203C54.3267 26.8203 54.6291 26.7066 54.8516 26.4792C55.079 26.2519 55.1927 25.9011 55.1927 25.427V22.4662C55.1927 22.413 55.2072 22.3719 55.2362 22.3429C55.2701 22.309 55.3112 22.2921 55.3596 22.2921H55.7369C55.7853 22.2921 55.824 22.309 55.853 22.3429C55.8869 22.3719 55.9038 22.413 55.9038 22.4662V25.4125C55.9038 25.8818 55.824 26.2664 55.6644 26.5663C55.5096 26.8614 55.287 27.0816 54.9967 27.2267C54.7065 27.3718 54.3557 27.4444 53.9445 27.4444Z" fill="white"/>
<path d="M48.2134 27.4444C47.8022 27.4444 47.449 27.3742 47.1539 27.2339C46.8588 27.0888 46.6314 26.8687 46.4718 26.5736C46.3121 26.2736 46.2226 25.8987 46.2033 25.4488C46.1984 25.2359 46.196 25.0327 46.196 24.8392C46.196 24.6408 46.1984 24.4352 46.2033 24.2224C46.2226 23.7773 46.3145 23.4072 46.479 23.1121C46.6483 22.8121 46.8806 22.5896 47.1757 22.4445C47.4756 22.2945 47.8215 22.2195 48.2134 22.2195C48.6101 22.2195 48.956 22.2945 49.2511 22.4445C49.5511 22.5896 49.7857 22.8121 49.955 23.1121C50.1243 23.4072 50.2163 23.7773 50.2308 24.2224C50.2405 24.4352 50.2453 24.6408 50.2453 24.8392C50.2453 25.0327 50.2405 25.2359 50.2308 25.4488C50.2163 25.8987 50.1268 26.2736 49.9623 26.5736C49.8026 26.8687 49.5752 27.0888 49.2801 27.2339C48.985 27.3742 48.6294 27.4444 48.2134 27.4444ZM48.2134 26.8276C48.5859 26.8276 48.8883 26.7163 49.1205 26.4937C49.3575 26.2712 49.4857 25.9108 49.5051 25.4125C49.5148 25.1948 49.5196 25.0013 49.5196 24.8319C49.5196 24.6578 49.5148 24.4643 49.5051 24.2514C49.4954 23.9176 49.4325 23.6467 49.3164 23.4386C49.2051 23.2306 49.0552 23.0782 48.8665 22.9815C48.6778 22.8847 48.4601 22.8363 48.2134 22.8363C47.9763 22.8363 47.7635 22.8847 47.5748 22.9815C47.3861 23.0782 47.2337 23.2306 47.1176 23.4386C47.0063 23.6467 46.9434 23.9176 46.9289 24.2514C46.9241 24.4643 46.9217 24.6578 46.9217 24.8319C46.9217 25.0013 46.9241 25.1948 46.9289 25.4125C46.9483 25.9108 47.0765 26.2712 47.3135 26.4937C47.5506 26.7163 47.8505 26.8276 48.2134 26.8276Z" fill="white"/>
<path d="M41.0851 27.3718C41.0318 27.3718 40.9907 27.3573 40.9617 27.3283C40.9327 27.2944 40.9182 27.2533 40.9182 27.2049V22.4662C40.9182 22.413 40.9327 22.3719 40.9617 22.3429C40.9907 22.309 41.0318 22.2921 41.0851 22.2921H42.8557C43.4024 22.2921 43.8354 22.4203 44.1547 22.6767C44.474 22.9331 44.6336 23.3129 44.6336 23.816C44.6336 24.1885 44.5393 24.4933 44.3506 24.7304C44.1668 24.9626 43.9152 25.1246 43.5959 25.2166L44.7135 27.1469C44.728 27.1759 44.7352 27.2025 44.7352 27.2267C44.7352 27.2654 44.7183 27.2993 44.6844 27.3283C44.6554 27.3573 44.6215 27.3718 44.5828 27.3718H44.2345C44.1523 27.3718 44.0918 27.3501 44.0531 27.3065C44.0144 27.263 43.9805 27.2194 43.9515 27.1759L42.8993 25.3327H41.6293V27.2049C41.6293 27.2533 41.6124 27.2944 41.5785 27.3283C41.5495 27.3573 41.5084 27.3718 41.4552 27.3718H41.0851ZM41.6293 24.7158H42.8267C43.1895 24.7158 43.4604 24.6409 43.6394 24.4909C43.8184 24.3361 43.908 24.1087 43.908 23.8087C43.908 23.5136 43.8184 23.2887 43.6394 23.1339C43.4653 22.979 43.1944 22.9016 42.8267 22.9016H41.6293V24.7158Z" fill="white"/>
<path d="M35.7034 27.3718C35.6502 27.3718 35.6091 27.3573 35.5801 27.3283C35.551 27.2944 35.5365 27.2533 35.5365 27.2049V22.4662C35.5365 22.413 35.551 22.3719 35.5801 22.3429C35.6091 22.309 35.6502 22.2921 35.7034 22.2921H37.5466C37.9046 22.2921 38.2143 22.3501 38.4755 22.4662C38.7416 22.5823 38.9472 22.7565 39.0923 22.9887C39.2375 23.2161 39.31 23.5015 39.31 23.845C39.31 24.1885 39.2375 24.4739 39.0923 24.7013C38.9472 24.9287 38.7416 25.1004 38.4755 25.2166C38.2143 25.3327 37.9046 25.3907 37.5466 25.3907H36.2622V27.2049C36.2622 27.2533 36.2453 27.2944 36.2114 27.3283C36.1824 27.3573 36.1412 27.3718 36.088 27.3718H35.7034ZM36.2549 24.7811H37.5104C37.8684 24.7811 38.1369 24.7013 38.3159 24.5417C38.4949 24.382 38.5844 24.1498 38.5844 23.845C38.5844 23.5451 38.4973 23.3129 38.3231 23.1484C38.149 22.9839 37.878 22.9016 37.5104 22.9016H36.2549V24.7811Z" fill="white"/>
</svg>
